<?xml version="1.0" encoding="UTF-8"?><svg id="Calque_1" xmlns="http://www.w3.org/2000/svg" viewBox="0 0 166.69 52.68"><defs><style>.cls-1{fill:#fff;stroke-width:0px;}</style></defs><path class="cls-1" d="m6.55,18.02c-.86,0-1.68-.11-2.46-.32-.78-.22-1.47-.55-2.08-1-.61-.45-1.09-1-1.45-1.66s-.55-1.43-.56-2.33c0-.14.05-.27.14-.37.1-.1.22-.16.36-.16h2.28c.21,0,.36.06.47.17.1.11.19.26.25.46.08.58.26,1.04.55,1.4.29.36.65.62,1.09.79.44.17.93.25,1.48.25,1.01,0,1.78-.33,2.32-.98.54-.66.8-1.57.8-2.74V3.82H1.61c-.18,0-.32-.06-.42-.17-.1-.11-.16-.25-.16-.41v-1.68c0-.16.05-.3.16-.41.1-.11.24-.17.42-.17h10.97c.18,0,.32.06.43.17.11.11.17.26.17.43v10.06c0,1.33-.28,2.47-.83,3.43-.55.96-1.32,1.69-2.3,2.2s-2.15.76-3.49.76Z"/><path class="cls-1" d="m21.86,18.02c-1.78,0-3.18-.51-4.22-1.54s-1.6-2.48-1.68-4.37c-.02-.16-.02-.36-.02-.61s0-.44.02-.59c.06-1.22.34-2.26.83-3.13.49-.87,1.16-1.54,2.03-2.02.86-.47,1.88-.71,3.05-.71,1.3,0,2.38.27,3.26.8.88.54,1.54,1.28,1.99,2.23.45.95.67,2.05.67,3.3v.5c0,.16-.06.3-.17.41-.11.11-.26.17-.43.17h-7.97v.19c.02.56.12,1.08.32,1.55.2.47.5.85.89,1.14.39.29.86.43,1.4.43.45,0,.82-.07,1.13-.2.3-.14.55-.29.74-.47.19-.18.33-.32.41-.43.14-.19.26-.31.35-.35s.22-.06.4-.06h2.06c.16,0,.29.05.4.14.1.1.15.22.13.36-.02.26-.15.57-.4.94-.25.37-.6.73-1.07,1.08-.46.35-1.04.64-1.74.88-.7.23-1.49.35-2.39.35Zm-2.64-7.56h5.3v-.07c0-.62-.1-1.17-.31-1.64-.21-.47-.51-.84-.91-1.1-.4-.26-.88-.4-1.44-.4s-1.04.13-1.44.4c-.4.26-.7.63-.9,1.1-.2.47-.3,1.02-.3,1.64v.07Z"/><path class="cls-1" d="m30.91,17.78c-.16,0-.3-.06-.41-.17-.11-.11-.17-.25-.17-.41V5.88c0-.16.06-.3.17-.41s.25-.17.41-.17h1.97c.16,0,.3.06.41.17.11.11.17.25.17.41v.98c.42-.51.95-.94,1.6-1.28.65-.34,1.45-.52,2.41-.52s1.82.22,2.54.66c.72.44,1.28,1.06,1.67,1.86.39.8.59,1.76.59,2.88v6.74c0,.16-.06.3-.17.41-.11.11-.25.17-.41.17h-2.11c-.16,0-.3-.06-.41-.17-.11-.11-.17-.25-.17-.41v-6.6c0-.93-.23-1.66-.68-2.18-.46-.53-1.12-.79-1.98-.79s-1.5.26-1.99.79c-.5.53-.74,1.26-.74,2.18v6.6c0,.16-.06.3-.17.41s-.25.17-.41.17h-2.11Z"/><path class="cls-1" d="m45.89,17.78c-.16,0-.3-.06-.41-.17-.11-.11-.17-.25-.17-.41V5.88c0-.16.06-.3.17-.41s.25-.17.41-.17h1.97c.16,0,.3.06.41.17.11.11.17.25.17.41v.98c.42-.51.95-.94,1.6-1.28.65-.34,1.45-.52,2.41-.52s1.82.22,2.54.66c.72.44,1.28,1.06,1.67,1.86.39.8.59,1.76.59,2.88v6.74c0,.16-.06.3-.17.41-.11.11-.25.17-.41.17h-2.11c-.16,0-.3-.06-.41-.17-.11-.11-.17-.25-.17-.41v-6.6c0-.93-.23-1.66-.68-2.18-.46-.53-1.12-.79-1.98-.79s-1.5.26-1.99.79c-.5.53-.74,1.26-.74,2.18v6.6c0,.16-.06.3-.17.41s-.25.17-.41.17h-2.11Z"/><path class="cls-1" d="m60.77,3.24c-.16,0-.3-.06-.41-.17s-.17-.25-.17-.41V.94c0-.16.06-.3.17-.41s.25-.17.41-.17h2.18c.18,0,.32.06.43.17.11.11.17.25.17.41v1.73c0,.16-.06.3-.17.41-.11.11-.26.17-.43.17h-2.18Zm.1,14.54c-.16,0-.3-.06-.41-.17-.11-.11-.17-.25-.17-.41V5.88c0-.16.06-.3.17-.41s.25-.17.41-.17h1.99c.18,0,.32.06.42.17.1.11.16.25.16.41v11.33c0,.16-.05.3-.16.41-.1.11-.24.17-.42.17h-1.99Z"/><path class="cls-1" d="m68.54,17.78c-.16,0-.3-.06-.41-.17-.11-.11-.17-.25-.17-.41V7.85h-1.94c-.16,0-.3-.06-.41-.17-.11-.11-.17-.26-.17-.43v-1.37c0-.16.06-.3.17-.41s.25-.17.41-.17h1.94v-.98c0-.96.18-1.76.53-2.39.35-.63.87-1.11,1.56-1.43.69-.32,1.56-.48,2.62-.48h1.63c.18,0,.32.06.42.17.1.11.16.25.16.41v1.37c0,.18-.05.32-.16.43-.1.11-.24.17-.42.17h-1.54c-.64,0-1.08.16-1.32.48-.24.32-.36.78-.36,1.39v.86h2.98c.18,0,.32.06.42.17.1.11.16.25.16.41v1.37c0,.18-.05.32-.16.43-.1.11-.24.17-.42.17h-2.98v9.36c0,.16-.06.3-.17.41-.11.11-.25.17-.41.17h-1.97Z"/><path class="cls-1" d="m81.74,18.02c-1.78,0-3.18-.51-4.22-1.54s-1.6-2.48-1.68-4.37c-.02-.16-.02-.36-.02-.61s0-.44.02-.59c.06-1.22.34-2.26.83-3.13.49-.87,1.16-1.54,2.03-2.02.86-.47,1.88-.71,3.05-.71,1.3,0,2.38.27,3.26.8.88.54,1.54,1.28,1.99,2.23.45.95.67,2.05.67,3.3v.5c0,.16-.06.3-.17.41-.11.11-.26.17-.43.17h-7.97v.19c.02.56.12,1.08.32,1.55.2.47.5.85.89,1.14.39.29.86.43,1.4.43.45,0,.82-.07,1.13-.2.3-.14.55-.29.74-.47.19-.18.33-.32.41-.43.14-.19.26-.31.35-.35s.22-.06.4-.06h2.06c.16,0,.29.05.4.14.1.1.15.22.13.36-.02.26-.15.57-.4.94-.25.37-.6.73-1.07,1.08-.46.35-1.04.64-1.74.88-.7.23-1.49.35-2.39.35Zm-2.64-7.56h5.3v-.07c0-.62-.1-1.17-.31-1.64-.21-.47-.51-.84-.91-1.1-.4-.26-.88-.4-1.44-.4s-1.04.13-1.44.4c-.4.26-.7.63-.9,1.1-.2.47-.3,1.02-.3,1.64v.07Z"/><path class="cls-1" d="m90.79,17.78c-.16,0-.3-.06-.41-.17-.11-.11-.17-.25-.17-.41V5.9c0-.18.06-.32.17-.43s.25-.17.41-.17h1.94c.16,0,.3.06.42.17.12.11.18.26.18.43v.98c.37-.51.84-.9,1.43-1.18s1.26-.41,2.03-.41h.98c.18,0,.32.06.42.17.1.11.16.25.16.41v1.73c0,.16-.05.3-.16.41-.1.11-.24.17-.42.17h-1.87c-.77,0-1.36.21-1.79.64s-.64,1.02-.64,1.79v6.6c0,.16-.06.3-.17.41s-.26.17-.43.17h-2.09Z"/><path class="cls-1" d="m111.98,18.02c-1.49,0-2.75-.26-3.78-.78-1.03-.52-1.82-1.26-2.36-2.23-.54-.97-.85-2.13-.91-3.49-.02-.66-.02-1.36-.02-2.11s0-1.47.02-2.16c.06-1.34.37-2.5.92-3.48.55-.98,1.34-1.72,2.38-2.24,1.03-.52,2.28-.78,3.76-.78,1.09,0,2.06.14,2.93.43.86.29,1.6.68,2.21,1.19s1.08,1.09,1.42,1.76c.34.67.51,1.4.53,2.18.02.14-.03.26-.13.36-.1.1-.23.14-.37.14h-2.28c-.18,0-.32-.04-.43-.13-.11-.09-.19-.24-.24-.44-.26-1.06-.7-1.78-1.32-2.16-.62-.38-1.4-.58-2.33-.58-1.07,0-1.93.3-2.57.9-.64.6-.98,1.59-1.03,2.96-.05,1.31-.05,2.66,0,4.03s.39,2.36,1.03,2.96c.64.6,1.5.9,2.57.9.93,0,1.71-.2,2.34-.59.63-.39,1.07-1.11,1.31-2.15.05-.22.13-.38.24-.46s.26-.12.43-.12h2.28c.14,0,.27.05.37.14s.15.22.13.36c-.02.78-.19,1.51-.53,2.18-.34.67-.81,1.26-1.42,1.76s-1.34.9-2.21,1.19c-.86.29-1.84.43-2.93.43Z"/><path class="cls-1" d="m125.25,18.02c-.83,0-1.58-.16-2.26-.49-.67-.33-1.2-.77-1.6-1.32-.39-.55-.59-1.17-.59-1.86,0-1.12.46-2.01,1.37-2.68.91-.66,2.1-1.11,3.58-1.33l3.29-.48v-.5c0-.67-.17-1.19-.5-1.56s-.91-.55-1.73-.55c-.58,0-1.04.12-1.4.35-.36.23-.63.54-.8.92-.13.21-.31.31-.55.31h-1.9c-.18,0-.31-.05-.4-.14-.09-.1-.13-.22-.13-.38.02-.26.12-.57.32-.94.2-.37.5-.72.91-1.07.41-.34.94-.64,1.6-.88.66-.24,1.45-.36,2.38-.36,1.01,0,1.86.12,2.56.37.7.25,1.25.58,1.67,1,.42.42.72.9.91,1.46.19.56.29,1.15.29,1.78v7.54c0,.16-.06.3-.17.41-.11.11-.25.17-.41.17h-1.94c-.18,0-.32-.06-.42-.17-.1-.11-.16-.25-.16-.41v-.94c-.21.29-.49.57-.84.84s-.78.49-1.28.66-1.1.25-1.79.25Zm.82-2.28c.56,0,1.07-.12,1.52-.36.46-.24.82-.61,1.08-1.12s.4-1.14.4-1.91v-.5l-2.4.38c-.94.14-1.65.38-2.11.7-.46.32-.7.71-.7,1.18,0,.35.11.65.32.9.22.25.49.43.83.55.34.12.69.18,1.06.18Z"/><path class="cls-1" d="m135.91,17.78c-.16,0-.3-.06-.41-.17-.11-.11-.17-.25-.17-.41V5.9c0-.18.06-.32.17-.43s.25-.17.41-.17h1.94c.16,0,.3.06.42.17.12.11.18.26.18.43v.98c.37-.51.84-.9,1.43-1.18s1.26-.41,2.03-.41h.98c.18,0,.32.06.42.17.1.11.16.25.16.41v1.73c0,.16-.05.3-.16.41-.1.11-.24.17-.42.17h-1.87c-.77,0-1.36.21-1.79.64s-.64,1.02-.64,1.79v6.6c0,.16-.06.3-.17.41s-.26.17-.43.17h-2.09Z"/><path class="cls-1" d="m145.92,17.78c-.16,0-.3-.06-.41-.17-.11-.11-.17-.25-.17-.41V5.9c0-.18.06-.32.17-.43s.25-.17.41-.17h1.94c.16,0,.3.06.42.17.12.11.18.26.18.43v.98c.37-.51.84-.9,1.43-1.18s1.26-.41,2.03-.41h.98c.18,0,.32.06.42.17.1.11.16.25.16.41v1.73c0,.16-.05.3-.16.41-.1.11-.24.17-.42.17h-1.87c-.77,0-1.36.21-1.79.64s-.64,1.02-.64,1.79v6.6c0,.16-.06.3-.17.41s-.26.17-.43.17h-2.09Z"/><path class="cls-1" d="m160.56,18.02c-1.78,0-3.18-.51-4.22-1.54s-1.6-2.48-1.68-4.37c-.02-.16-.02-.36-.02-.61s0-.44.02-.59c.06-1.22.34-2.26.83-3.13.49-.87,1.16-1.54,2.03-2.02.86-.47,1.88-.71,3.05-.71,1.3,0,2.38.27,3.26.8.88.54,1.54,1.28,1.99,2.23.45.95.67,2.05.67,3.3v.5c0,.16-.06.3-.17.41-.11.11-.26.17-.43.17h-7.97v.19c.02.56.12,1.08.32,1.55.2.47.5.85.89,1.14.39.29.86.43,1.4.43.45,0,.82-.07,1.13-.2.3-.14.55-.29.74-.47.19-.18.33-.32.41-.43.14-.19.26-.31.35-.35s.22-.06.4-.06h2.06c.16,0,.29.05.39.14.1.1.15.22.13.36-.02.26-.15.57-.4.94-.25.37-.6.73-1.07,1.08-.46.35-1.04.64-1.74.88-.7.23-1.49.35-2.39.35Zm-2.64-7.56h5.3v-.07c0-.62-.11-1.17-.31-1.64-.21-.47-.51-.84-.91-1.1-.4-.26-.88-.4-1.44-.4s-1.04.13-1.44.4c-.4.26-.7.63-.9,1.1-.2.47-.3,1.02-.3,1.64v.07Zm1.61-6.96c-.26,0-.38-.13-.38-.38,0-.13.04-.23.12-.31l1.94-2.38c.16-.18.3-.29.41-.35.11-.06.27-.08.48-.08h2.4c.3,0,.46.15.46.46,0,.11-.04.21-.12.29l-2.98,2.45c-.13.11-.25.19-.37.24-.12.05-.28.07-.49.07h-1.46Z"/><path class="cls-1" d="m.14,29.11c.07-.08.17-.14.32-.17.14-.03.29-.04.45-.03.15.01.3.05.45.1s.24.12.29.18l.38,16.75c0,.16-.05.28-.15.35-.1.07-.23.1-.37.11-.14,0-.29-.01-.45-.05s-.28-.1-.38-.18L.14,29.11Z"/><path class="cls-1" d="m3.54,34.06c.02-.14.08-.25.2-.33.12-.08.26-.13.41-.15.15-.02.31,0,.46.04.15.05.28.12.38.21l-.08,8.17c.32-.98.62-1.95.88-2.91.26-.96.59-1.83.98-2.62.39-.78.88-1.43,1.48-1.94.6-.51,1.39-.8,2.38-.87.53-.04.99.08,1.38.38.39.29.73.69,1.01,1.19.28.5.52,1.09.7,1.77.19.67.34,1.38.45,2.1.11.73.19,1.46.24,2.2.05.74.08,1.42.1,2.04.02.63.02,1.18.01,1.65,0,.48-.02.82-.04,1.04-.12.23-.33.38-.63.46-.3.07-.57-.02-.8-.3-.02-.26-.03-.7-.03-1.34s-.01-1.36-.04-2.18c-.03-.82-.08-1.67-.15-2.56-.08-.89-.2-1.72-.38-2.47s-.43-1.39-.74-1.9-.72-.8-1.21-.87c-.43-.05-.84.13-1.24.55-.4.42-.78.98-1.15,1.67-.37.69-.71,1.48-1.02,2.35s-.6,1.73-.84,2.57c-.25.84-.46,1.62-.63,2.33-.17.71-.28,1.25-.33,1.63-.05.11-.15.2-.31.27-.15.07-.32.1-.5.11-.18,0-.36-.02-.54-.07s-.31-.16-.4-.31l-.03-11.95Z"/><path class="cls-1" d="m16.77,36.53l-2.35.63c-.19-.04-.34-.12-.47-.22-.13-.11-.22-.22-.27-.35-.05-.12-.06-.24-.04-.35.03-.11.1-.19.22-.25l2.91-.88-.05-5.78c.05-.18.16-.31.33-.39.17-.08.34-.12.52-.11s.34.05.5.14c.15.09.26.2.31.34-.03.42-.06.87-.08,1.34-.02.47-.03.94-.04,1.41,0,.47,0,.93.01,1.37.02.44.05.85.1,1.22l3.96-1.29c.24-.05.43-.04.56.05.14.09.23.2.27.35.04.14.03.28-.04.42s-.19.23-.36.29l-4.39,1.59c0,.14,0,.46.03.97s.03,1.11.05,1.81c.02.69.03,1.44.05,2.23.02.79.03,1.53.04,2.23,0,.69.02,1.3.03,1.81s.01.83.01.97c-.03.45-.2.67-.49.67s-.6-.11-.94-.33l-.38-9.89Z"/><path class="cls-1" d="m22.49,40.78c-.12.08-.33.11-.63.09-.3-.02-.57-.07-.82-.15-.25-.08-.41-.19-.5-.34-.08-.14.02-.31.31-.5.12-.08.25-.14.4-.17s.29-.07.43-.1.26-.08.36-.15c.09-.07.15-.18.17-.33.02-.61.08-1.24.19-1.88.11-.64.32-1.21.63-1.72.31-.5.74-.91,1.31-1.21.57-.3,1.32-.42,2.26-.35.34,0,.72.06,1.15.19.43.13.83.3,1.23.51s.73.46,1.02.76.47.61.54.95c.12.14.05.31-.2.51s-.61.43-1.07.68c-.46.25-.98.51-1.56.77-.58.26-1.14.5-1.67.74s-1.01.44-1.42.61c-.41.18-.67.3-.79.37.1.53.21,1.09.33,1.68s.29,1.12.51,1.61.5.9.83,1.22c.33.32.75.48,1.26.48.75.04,1.39-.05,1.93-.27s.98-.5,1.34-.86c.36-.35.64-.74.86-1.16.21-.42.37-.82.48-1.21.11-.38.19-.7.23-.97.04-.27.08-.41.11-.44.19-.08.4-.08.64-.01.24.08.37.28.41.6.02.53-.13,1.14-.43,1.82-.31.68-.73,1.31-1.26,1.88-.54.57-1.17,1.03-1.92,1.38-.74.35-1.53.47-2.36.36-.87-.01-1.56-.21-2.07-.6s-.92-.86-1.21-1.41c-.3-.55-.52-1.13-.65-1.75s-.26-1.16-.36-1.63Zm6.69-4.39c-.54-.6-1.1-.98-1.66-1.14-.56-.16-1.14-.21-1.74-.14-.36.04-.67.17-.94.4-.27.22-.49.51-.66.86-.17.35-.29.74-.36,1.16-.07.43-.08.87-.03,1.32l5.39-2.45Zm-3.63-4.02c-.51-.08-.79-.24-.84-.47-.05-.23.05-.49.29-.79.25-.29.59-.61,1.02-.95s.87-.67,1.31-.98c.31,0,.52.07.64.2.12.14.18.29.18.47v.16c-.03.18-.15.37-.34.58-.2.21-.43.42-.69.63-.26.21-.54.42-.83.61-.29.2-.54.37-.74.52Z"/><path class="cls-1" d="m35.3,51.52c1.26-.05,2.33-.27,3.22-.64.88-.37,1.62-.87,2.2-1.48s1.01-1.33,1.3-2.15c.29-.82.48-1.7.56-2.66.05-.61.08-1.15.09-1.62,0-.47,0-.9-.03-1.29-.03-.39-.06-.76-.09-1.11-.03-.35-.07-.72-.1-1.1-.03-.38-.06-.79-.09-1.24-.03-.44-.04-.95-.04-1.52-.82,1.92-1.58,3.47-2.3,4.64-.71,1.17-1.38,2.06-2,2.66-.62.6-1.18.96-1.69,1.08s-.94.1-1.31-.07c-.37-.17-.68-.45-.92-.84s-.4-.79-.48-1.19c.03-.68.2-1.43.48-2.26s.67-1.63,1.15-2.43c.48-.8,1.03-1.54,1.66-2.23.63-.69,1.31-1.24,2.04-1.64.73-.41,1.48-.64,2.26-.69.77-.05,1.55.16,2.34.63.02-.01.04.14.06.45s.06.74.1,1.27c.04.53.08,1.15.13,1.85.04.7.09,1.43.14,2.2.05.76.1,1.53.14,2.29.04.76.09,1.47.14,2.12.02,1.27-.22,2.43-.72,3.49-.49,1.06-1.15,1.96-1.98,2.7-.83.74-1.77,1.27-2.83,1.61-1.06.34-2.16.42-3.28.25-.05,0-.13-.03-.24-.08-.11-.05-.2-.13-.26-.22s-.07-.21-.04-.34c.03-.13.16-.27.38-.42Zm-.33-8.52c.19.49.43.73.74.73s.65-.18,1.03-.53c.38-.35.79-.82,1.21-1.42.43-.6.86-1.26,1.29-1.97s.86-1.44,1.26-2.19c.41-.74.79-1.43,1.15-2.05,0-.16-.05-.32-.14-.46-.09-.14-.3-.19-.63-.13-.53.08-1.04.29-1.54.62-.5.33-.97.74-1.42,1.21-.44.47-.85.99-1.21,1.55-.37.57-.68,1.13-.93,1.7-.26.57-.46,1.11-.6,1.62-.15.52-.22.96-.22,1.33Z"/><path class="cls-1" d="m45.67,45.84c-.05-1.88-.09-3.47-.13-4.78-.03-1.31-.06-2.39-.08-3.25-.02-.86-.03-1.53-.04-2.01s-.02-.84-.03-1.07c0-.23-.01-.37-.01-.42v-.09c.02-.12.09-.22.23-.31.14-.08.28-.13.45-.15.16-.02.32,0,.47.05.15.05.26.14.33.27l.08,4.7c.26-.94.67-1.72,1.24-2.35.57-.63,1.21-1.12,1.93-1.48s1.46-.6,2.23-.71c.77-.11,1.49-.12,2.16-.02.22.04.39.12.5.23.11.11.17.23.18.36,0,.13-.03.25-.13.37-.09.12-.22.2-.37.26-.77-.04-1.49.01-2.16.15-.67.14-1.29.35-1.84.63-.55.28-1.04.61-1.46.99-.42.38-.75.78-.98,1.21-.36.61-.6,1.26-.73,1.93-.13.67-.2,1.35-.23,2.01-.03.67-.03,1.3,0,1.9s.03,1.12.01,1.57c-.02.15-.1.26-.24.34s-.31.12-.48.12c-.18,0-.36-.03-.54-.1-.18-.07-.3-.19-.37-.34Z"/><path class="cls-1" d="m62.35,46.03c-.24-.29-.39-.66-.45-1.12-.06-.46-.09-.95-.1-1.46s0-1.01,0-1.51c0-.5-.04-.92-.14-1.28-.8,1.4-1.55,2.5-2.26,3.28-.71.78-1.35,1.34-1.94,1.68-.59.33-1.12.48-1.6.45-.48-.03-.88-.17-1.21-.41s-.59-.53-.78-.88c-.19-.35-.29-.68-.31-.99-.12-.52-.12-1.14-.01-1.87.11-.73.31-1.48.59-2.26.28-.78.64-1.54,1.07-2.28.43-.74.93-1.39,1.48-1.93.55-.54,1.14-.95,1.77-1.22.63-.27,1.29-.31,1.97-.13.34-.03.63-.02.85.03.23.05.42.15.57.3s.26.36.33.62c.07.27.12.6.15,1.01-.03,1.32.01,2.44.14,3.37.13.93.28,1.74.45,2.45.17.71.34,1.35.5,1.92.16.57.26,1.16.29,1.78,0,.22-.07.39-.2.5-.14.12-.29.19-.46.22-.17.03-.33.02-.47-.03-.15-.05-.23-.14-.24-.25Zm-1.48-10.32c-.41-.44-.85-.62-1.33-.55-.48.07-.95.3-1.42.7-.47.4-.92.93-1.34,1.57-.43.65-.79,1.34-1.1,2.07-.31.74-.53,1.47-.68,2.2s-.17,1.37-.09,1.93c.24.61.53.98.87,1.1s.71.08,1.1-.13c.39-.21.79-.55,1.2-1.01s.8-.96,1.17-1.5c.37-.54.71-1.08,1.01-1.61.3-.54.54-.99.73-1.36l-.13-3.41Z"/><path class="cls-1" d="m66.08,36.53l-2.35.63c-.19-.04-.34-.12-.47-.22-.13-.11-.22-.22-.27-.35-.05-.12-.06-.24-.04-.35.03-.11.1-.19.22-.25l2.91-.88-.05-5.78c.05-.18.16-.31.33-.39.17-.08.34-.12.52-.11s.34.05.5.14c.15.09.26.2.31.34-.03.42-.06.87-.08,1.34-.02.47-.03.94-.04,1.41,0,.47,0,.93.01,1.37.02.44.05.85.1,1.22l3.96-1.29c.24-.05.43-.04.56.05.14.09.23.2.27.35.04.14.03.28-.04.42s-.19.23-.36.29l-4.39,1.59c0,.14,0,.46.03.97s.03,1.11.05,1.81c.02.69.03,1.44.05,2.23.02.79.03,1.53.04,2.23,0,.69.02,1.3.03,1.81s.01.83.01.97c-.03.45-.2.67-.49.67s-.6-.11-.94-.33l-.38-9.89Z"/><path class="cls-1" d="m71.87,45.84c-.05-1.88-.09-3.47-.13-4.78-.03-1.31-.06-2.39-.08-3.25-.02-.86-.03-1.53-.04-2.01s-.02-.84-.03-1.07c0-.23-.01-.37-.01-.42v-.09c.02-.12.09-.22.23-.31.14-.08.28-.13.45-.15.16-.02.32,0,.47.05.15.05.26.14.33.27l.08,4.7c.26-.94.67-1.72,1.24-2.35.57-.63,1.21-1.12,1.93-1.48s1.46-.6,2.23-.71c.77-.11,1.49-.12,2.16-.02.22.04.39.12.5.23.11.11.17.23.18.36,0,.13-.03.25-.13.37-.09.12-.22.2-.37.26-.77-.04-1.49.01-2.16.15-.67.14-1.29.35-1.84.63-.55.28-1.04.61-1.46.99-.42.38-.75.78-.98,1.21-.36.61-.6,1.26-.73,1.93-.13.67-.2,1.35-.23,2.01-.03.67-.03,1.3,0,1.9s.03,1.12.01,1.57c-.02.15-.1.26-.24.34s-.31.12-.48.12c-.18,0-.36-.03-.54-.1-.18-.07-.3-.19-.37-.34Z"/><path class="cls-1" d="m82.21,29.52c0-.18.08-.3.23-.36.15-.06.32-.09.51-.09.37,0,.61.1.7.3s.14.43.14.68c-.1.16-.24.28-.41.35-.17.07-.34.08-.52.04-.18-.04-.33-.14-.46-.29-.13-.15-.19-.36-.19-.63Zm.31,4.17c.1-.04.22-.07.36-.1.14-.03.27-.04.4-.04s.25.02.37.06.21.12.28.22c0,.89.01,1.84.04,2.87s.06,2.07.1,3.13c.04,1.06.08,2.09.11,3.12s.07,1.97.1,2.84c.02.2-.05.36-.2.47s-.32.16-.5.16-.34-.05-.5-.15c-.15-.1-.23-.26-.23-.48l-.33-12.09Z"/><path class="cls-1" d="m85.64,41c.05-.56.11-1.12.18-1.7.07-.57.17-1.13.31-1.67.14-.54.31-1.04.54-1.52.22-.48.51-.89.85-1.25.35-.35.77-.63,1.28-.84.5-.2,1.1-.3,1.8-.29.48,0,.84.16,1.1.48.26.32.44.71.55,1.15.11.45.17.91.18,1.39,0,.48.01.87.01,1.16-.26.08-.47.08-.65,0-.18-.08-.32-.21-.43-.4-.11-.18-.21-.4-.29-.64-.09-.25-.16-.49-.22-.74s-.13-.48-.2-.69c-.08-.22-.17-.39-.27-.53-.31-.11-.6-.07-.89.1-.29.18-.55.43-.79.77-.24.33-.46.73-.65,1.19-.2.46-.36.93-.5,1.4-.14.47-.25.92-.33,1.36-.09.44-.13.8-.13,1.1.02.41.07.85.15,1.32.08.47.22.91.41,1.32.19.41.43.76.74,1.05.31.29.7.48,1.17.56.65,0,1.2-.08,1.65-.26.45-.17.83-.39,1.12-.65s.53-.56.7-.89c.17-.33.31-.66.41-.99.1-.33.18-.65.24-.94.06-.29.12-.53.19-.73.44-.1.79-.09,1.03.02.25.11.37.24.37.39,0,.63-.14,1.25-.41,1.87-.27.62-.66,1.17-1.16,1.67s-1.11.89-1.83,1.19c-.71.3-1.52.45-2.43.45-.77,0-1.4-.19-1.89-.58-.49-.39-.88-.85-1.16-1.4-.28-.54-.48-1.12-.59-1.72-.11-.6-.17-1.11-.17-1.53Z"/><path class="cls-1" d="m97.15,40.78c-.12.08-.33.11-.63.09-.3-.02-.57-.07-.82-.15-.25-.08-.41-.19-.5-.34-.08-.14.02-.31.31-.5.12-.08.25-.14.4-.17s.29-.07.43-.1.26-.08.36-.15c.09-.07.15-.18.17-.33.02-.61.08-1.24.19-1.88.11-.64.32-1.21.63-1.72.31-.5.74-.91,1.31-1.21.57-.3,1.32-.42,2.26-.35.34,0,.72.06,1.15.19.43.13.83.3,1.23.51s.73.46,1.02.76.47.61.54.95c.12.14.05.31-.2.51s-.61.43-1.07.68c-.46.25-.98.51-1.56.77-.58.26-1.14.5-1.67.74s-1.01.44-1.42.61c-.41.18-.67.3-.79.37.1.53.21,1.09.33,1.68s.29,1.12.51,1.61.5.9.83,1.22c.33.32.75.48,1.26.48.75.04,1.39-.05,1.93-.27s.98-.5,1.34-.86c.36-.35.64-.74.86-1.16.21-.42.37-.82.48-1.21.11-.38.19-.7.23-.97.04-.27.08-.41.11-.44.19-.08.4-.08.64-.01.24.08.37.28.41.6.02.53-.13,1.14-.43,1.82-.31.68-.73,1.31-1.26,1.88-.54.57-1.17,1.03-1.92,1.38-.74.35-1.53.47-2.36.36-.87-.01-1.56-.21-2.07-.6s-.92-.86-1.21-1.41c-.3-.55-.52-1.13-.65-1.75s-.26-1.16-.36-1.63Zm6.69-4.39c-.54-.6-1.1-.98-1.66-1.14-.56-.16-1.14-.21-1.74-.14-.36.04-.67.17-.94.4-.27.22-.49.51-.66.86-.17.35-.29.74-.36,1.16-.07.43-.08.87-.03,1.32l5.39-2.45Z"/><path class="cls-1" d="m121.08,29.44c0-.2.05-.35.14-.44.09-.09.21-.14.36-.16.14-.02.3-.02.46.01.16.03.31.06.45.1l4.47,15.73c.07-.05.21-.31.42-.78.21-.46.46-1.04.74-1.75.28-.7.59-1.48.93-2.34.34-.86.68-1.72,1.01-2.58.33-.86.64-1.69.93-2.46s.54-1.44.74-1.98c.12-.2.27-.36.45-.46s.37-.15.57-.15.4.04.59.12c.19.08.34.2.46.37l5.06,11.81,3.83-15.32c.09-.12.2-.22.34-.3s.29-.11.42-.11.27.05.4.15c.13.1.23.28.29.54l-4.32,16.34c-.03.05-.11.13-.24.21-.13.09-.28.15-.46.17-.18.03-.37,0-.57-.08-.2-.08-.38-.27-.54-.55l-5.26-11.6-4.75,12.01c-.15.16-.35.26-.59.3-.24.03-.47.03-.69-.01-.22-.04-.42-.1-.59-.17-.17-.07-.26-.13-.28-.17l-4.77-16.45Z"/><path class="cls-1" d="m144.78,40.78c-.12.08-.33.11-.63.09-.3-.02-.57-.07-.82-.15-.25-.08-.41-.19-.5-.34-.08-.14.02-.31.31-.5.12-.08.25-.14.4-.17s.29-.07.43-.1.26-.08.36-.15c.09-.07.15-.18.17-.33.02-.61.08-1.24.19-1.88.11-.64.32-1.21.63-1.72.31-.5.74-.91,1.31-1.21.57-.3,1.32-.42,2.26-.35.34,0,.72.06,1.15.19.43.13.83.3,1.23.51s.73.46,1.02.76.47.61.54.95c.12.14.05.31-.2.51s-.61.43-1.07.68c-.46.25-.98.51-1.56.77-.58.26-1.14.5-1.67.74s-1.01.44-1.42.61c-.41.18-.67.3-.79.37.1.53.21,1.09.33,1.68s.29,1.12.51,1.61.5.9.83,1.22c.33.32.75.48,1.26.48.75.04,1.39-.05,1.93-.27s.98-.5,1.34-.86c.36-.35.64-.74.86-1.16.21-.42.37-.82.48-1.21.11-.38.19-.7.23-.97.04-.27.08-.41.11-.44.19-.08.4-.08.64-.01.24.08.37.28.41.6.02.53-.13,1.14-.43,1.82-.31.68-.73,1.31-1.26,1.88-.54.57-1.17,1.03-1.92,1.38-.74.35-1.53.47-2.36.36-.87-.01-1.56-.21-2.07-.6s-.92-.86-1.21-1.41c-.3-.55-.52-1.13-.65-1.75s-.26-1.16-.36-1.63Zm6.69-4.39c-.54-.6-1.1-.98-1.66-1.14-.56-.16-1.14-.21-1.74-.14-.36.04-.67.17-.94.4-.27.22-.49.51-.66.86-.17.35-.29.74-.36,1.16-.07.43-.08.87-.03,1.32l5.39-2.45Z"/><path class="cls-1" d="m156.45,46.19c-.1-1.2-.17-2.36-.22-3.47-.04-1.12-.07-2.32-.09-3.62-.02-1.29-.03-2.74-.05-4.35-.02-1.61-.05-3.49-.1-5.66.22,0,.43-.01.63-.03s.37-.02.51-.01c.14.01.26.06.34.13.08.08.13.21.13.42,0,.56,0,1.1.01,1.62,0,.52.01,1.1.01,1.73s0,1.34.01,2.15c0,.8.01,1.76.01,2.86.66-.69,1.27-1.25,1.83-1.67.55-.42,1.08-.73,1.57-.94.49-.21.98-.34,1.44-.39.47-.05.94-.05,1.42-.01.54,0,1,.09,1.35.28.36.18.64.43.86.74.21.31.36.66.45,1.05s.13.8.13,1.23c-.02.3-.04.62-.08.97-.03.35-.13.72-.29,1.12s-.41.82-.75,1.26-.82.9-1.44,1.38c-.62.48-1.4.98-2.35,1.5-.94.52-2.1,1.05-3.46,1.59-.44.1-.79.16-1.03.18-.25.03-.43.04-.56.03-.13,0-.2-.02-.23-.04s-.04-.04-.04-.05Zm1.28-1.31c.08-.05.32-.16.72-.31.39-.15.86-.35,1.4-.59.54-.25,1.12-.54,1.74-.9.61-.35,1.19-.77,1.72-1.24.54-.47.99-1,1.37-1.6.37-.6.6-1.27.66-2,0-.2-.04-.43-.11-.67-.08-.25-.2-.47-.36-.68-.16-.21-.37-.39-.61-.53-.25-.14-.54-.21-.88-.21-.7,0-1.33.14-1.9.42-.57.28-1.09.63-1.55,1.05-.46.42-.86.88-1.21,1.38-.35.5-.64.96-.88,1.4l-.1,4.49Z"/></svg>